# xmcd
#
# Track frame offsets:
#        150
#        12485
#        35198
#        49791
#        63740
#        88022
#        104296
#        124157
#        138643
#        156111
#        175569
#        197597
#        217926
#        236190
#        250804
#        270972
#        297265
#        313810
#
# Disc length: 4464 seconds
#
# Revision: 0
# Processed by: cddbd v1.5.1PL2 Copyright (c) Steve Scherf et al.
# Submitted via: ExactAudioCopy v0.95a5
#
DISCID=0a116e12
DTITLE=Various Artist - QUEENS  Legend of Diva
DYEAR=2005
DGENRE=Vocal
TTITLE0=Sylvie Vartan - Irresistiblement
TTITLE1=Beyonce - Me. Myself And I
TTITLE2=Ciara - Next To You feauturing R. Kelly
TTITLE3=Bangles - Manic Monday
TTITLE4=Eurythmics - There Must Be An Angel (Playing With My Heart)
TTITLE5=Diana King - I Say A Little Prayer
TTITLE6=Jessica Simpson - I Wanna Love You Forever
TTITLE7=P!nk - Get The Party Started
TTITLE8=Aaliyah - Back and Forth
TTITLE9=Alicia Keys - A Woman's Worth
TTITLE10=Monica - Before You Walk Out Of My Life
TTITLE11=Toni Braxton - Un-Break My Heart
TTITLE12=Gloria Estefan and Miami Sound Mochine - Anuthing ForYou
TTITLE13=Solange - Solo Star
TTITLE14=Aretha Franklin - A Rose Is Still A Rose
TTITLE15=Karyu White - Superwoman
TTITLE16=Dido - Thankyou
TTITLE17=Janis Ian - At Seventeen
EXTD=
EXTT0=
EXTT1=
EXTT2=
EXTT3=
EXTT4=
EXTT5=
EXTT6=
EXTT7=
EXTT8=
EXTT9=
EXTT10=
EXTT11=
EXTT12=
EXTT13=
EXTT14=
EXTT15=
EXTT16=
EXTT17=
PLAYORDER=
